# xmcd
#
# Track frame offsets:
#	150
#	52686
#	80880
#	116220
#	137991
#	209389
#	240609
#	276803
#	310982
#
# Disc length: 4603 seconds
# Revision: 0
# Processed by: cddbd v1.5.2PL0 Copyright (c) Steve Scherf et al.
# Submitted via: dBpowerAMP V12.0
#
DISCID=8411f909
DTITLE=Various Artist - Magnum Opus 1
DYEAR=1973
DGENRE=Disco
TTITLE0=Creative Source - Who Is He and What Is He to You (Extended Mix)
TTITLE1=The Maceo and Macks - Cross the Track (We Better Go Back) (Simon Harris Remix)
TTITLE2=Diana Ross - Love Hangover (Extended Mix)
TTITLE3=Jackson Sisters - I Believe in Miracles (Simon Harris Remix)
TTITLE4=Donna Summer - I Feel Love (Patrick Cowley Mega Mix)
TTITLE5=Roy Ayers - Running Away (Extended Mix)
TTITLE6=Barry White - Your Sweetness Is My Weakness (Extended Mix)
TTITLE7=Third World - Now That We Found Love (Extended Mix)
TTITLE8=Hamilton Bohannon - Let's Start the Dance (Extended Mix)
EXTD=
EXTT0=
EXTT1=
EXTT2=
EXTT3=
EXTT4=
EXTT5=
EXTT6=
EXTT7=
EXTT8=
PLAYORDER=
